<svg width="755" height="712" viewBox="0 0 755 712" fill="none" xmlns="http://www.w3.org/2000/svg">
<path d="M589.5 329C583.5 355 554.667 373.833 541 380L580 418.5C586.4 390.5 617.667 376.167 632.5 372.5L589.5 329Z" fill="#F29100" stroke="#F29100"/>
<path d="M460 681.5C461.932 681.21 464.833 681.084 468.554 681.038C655.493 669.195 651.779 552.97 626 495.5C666 501.5 687 478 692.5 465.5L694 470C749.668 696.413 522.604 680.36 468.554 681.038C465.746 681.215 462.895 681.37 460 681.5Z" fill="#F29100"/>
<path d="M460 681.5C490 677 753.5 712 694 470L692.5 465.5C687 478 666 501.5 626 495.5C652.167 553.833 655.6 672.7 460 681.5Z" stroke="#F29100"/>
<path d="M430 293.5L384.5 267C398.1 241 414.5 221.833 421 215.5L460.5 237.5C436.5 253.9 430.167 281.667 430 293.5Z" fill="#F29100" stroke="#F29100"/>
<path d="M270.5 98C389.7 -48.8 519.5 103.5 569.5 198C457.1 34.4 356.333 94.8333 320 145.5C311.2 109.1 283.333 98.6667 270.5 98Z" fill="#056BB4" stroke="#056BB4"/>
<path d="M211 195.5L195 261C227 253 253.333 268 262.5 276.5L279 216.5C243.4 225.7 218.833 206.333 211 195.5Z" fill="#056BB4" stroke="#056BB4"/>
<path d="M179.5 417V459C191.9 465.8 224.667 466.167 239.5 465.5V420C211.1 428.4 187.667 421.5 179.5 417Z" fill="#056BB4" stroke="#056BB4"/>
<path d="M482.631 480.5L431.5 511.381C455.395 525.961 465.419 553.569 467.444 565.55L512.5 536.694C506.83 515.634 490.225 490.456 482.631 480.5Z" fill="#33FF00" stroke="#33FF00"/>
<path d="M304.5 565L255 577C279 597.4 274 631.833 268.5 646.5L322.5 632.5C303.7 610.9 302.667 578.5 304.5 565Z" fill="#33FF00" stroke="#33FF00"/>
<circle cx="511" cy="303" r="65" stroke="#F29100" stroke-width="36"/>
<circle cx="386" cy="581" r="65" stroke="#33FF00" stroke-width="36"/>
<circle cx="214.5" cy="341.5" r="65.5" stroke="#056BB4" stroke-width="36"/>
<circle cx="638.5" cy="434.5" r="49" stroke="#F29100" stroke-width="27"/>
<circle cx="212" cy="623" r="49.5" stroke="#33FF00" stroke-width="27"/>
<circle cx="262.5" cy="159.5" r="49" stroke="#056BB4" stroke-width="27"/>
<path d="M165.5 580.5C16.3 553.3 52.6666 410.167 89.5 342C-46.9 559.6 77.6666 637.667 157 649.5C141.8 617.1 156.333 590 165.5 580.5Z" fill="#33FF00" stroke="#33FF00"/>
<path d="M405.5 405.5C135.091 545.62 109.332 406.12 132 318.5C55.6 464.9 157.833 513.5 219.5 518.5C294.7 521.3 397.833 462.333 438.5 433.5C424.1 415.9 411.333 407.333 405.5 405.5Z" fill="#33FF00" stroke="#33FF00"/>
<path d="M366 328C356 359.2 358.167 373 360.5 376C450.9 424.4 499.833 503.833 513 537.5C530 622 454.5 660.449 414 662C563.6 668 582 570 558 511C512.8 415 411.167 349 366 328Z" fill="#F29100" stroke="#F29100"/>
<path d="M387 180.5C314.2 230.5 302.333 379.333 305.5 448C310.161 446.803 341.998 434.843 357.992 427.326C360.392 333.726 378.167 281.667 387 267.5C443.4 141.5 533.833 196.333 572 239.5C531 177 478 118 387 180.5Z" fill="#056BB4" stroke="#056BB4"/>
</svg>
